<?xml version="1.0" encoding="utf-8"?>
<!-- Generator: Adobe Illustrator 26.0.0, SVG Export Plug-In . SVG Version: 6.00 Build 0)  -->
<svg version="1.1" id="Livello_1" xmlns="http://www.w3.org/2000/svg" xmlns:xlink="http://www.w3.org/1999/xlink" x="0px" y="0px"
	 viewBox="0 0 342.13 100.09" style="enable-background:new 0 0 342.13 100.09;" xml:space="preserve">
<style type="text/css">
	.st0{fill:#31AFB4;}
</style>
<g>
	<path class="st0" d="M69.26,17.17c4.59,2,6.36,4.76,5.07,8.21c-1.55,4.17-4.62,4.88-10.49,2.61c-1.13-0.44-2.32-0.73-3.51-0.97
		c-3.17-0.64-5.29-2.62-5.96-5.55c-0.63-2.74,1.34-4.57,3.45-6.06c1.02-0.72,1.67-1.05,3.24-1.05C65.57,15.15,66.58,16,69.26,17.17z
		"/>
	<path class="st0" d="M77.92,62.46c0.3,8.94-9.21,17.32-16.93,18.32c-2.63,0.34-5.22-1.35-6.25-3.94c-0.93-2.34,0.15-5.51,2.54-6.88
		c1.43-0.82,3.05-1.32,4.56-2c2.51-1.13,4.02-3.08,3.89-5.84c-0.12-2.68-1.61-4.66-4.05-5.86c-3.05-1.5-6.31-2.07-9.68-1.97
		c-6.03,0.19-12.02-0.34-17.73-2.17c-6.28-2.02-11.96-5-14.31-11.98c-2.83-8.39,0.04-16.69,7.85-21.58c2.24-1.4,4.58-2.77,7.29-3.1
		c3.34-0.41,5.71,0.95,6.78,3.81c1.02,2.73-0.09,5.37-3.09,7.04c-1.15,0.64-2.45,1.03-3.67,1.54c-2.55,1.07-3.95,3.01-4.12,5.74
		c-0.2,3.09,1.64,5.07,4.18,6.22c4.3,1.96,9,2.45,13.64,2.42c5.91-0.05,11.58,0.7,17.07,2.95C73.39,48.26,77.97,54.74,77.92,62.46z"
		/>
	<path class="st0" d="M131.99,53.64c0-2.82-0.1-5.65,0.04-8.46c0.09-1.73,1-3.03,2.93-1.96c1.38,0.76,2.55,0.48,3.79-0.01
		c3.23-1.27,6.28-0.94,8.84,1.4c1.74,1.59,3.02,1.41,4.69-0.07c3.36-2.98,7.09-2.38,10.7-0.54c3.42,1.74,4.95,4.74,4.92,8.56
		c-0.02,2.82,0.05,5.65-0.02,8.47c-0.04,1.6,0.19,3.87-2.1,3.75c-2.15-0.11-1.89-2.36-1.93-3.98c-0.06-2.32,0.03-4.65-0.05-6.97
		c-0.04-1.15-0.13-2.34-0.5-3.41c-0.85-2.46-2.79-3.79-5.3-3.82c-2.49-0.03-4.42,1.19-5.46,3.61c-0.61,1.42-0.67,2.89-0.68,4.39
		c-0.01,2.49,0.01,4.98-0.07,7.47c-0.04,1.36-0.31,2.88-2.09,2.77c-1.39-0.09-1.69-1.45-1.74-2.64c-0.08-1.99-0.04-3.98-0.08-5.97
		c-0.03-1.49,0.06-3.01-0.2-4.47c-0.56-3.15-2.95-5.2-5.79-5.21c-2.85-0.01-5.28,2.05-5.83,5.16c-0.25,1.46-0.16,2.98-0.18,4.47
		c-0.04,1.99,0.02,3.99-0.08,5.97c-0.07,1.37-0.43,2.88-2.19,2.69c-1.36-0.15-1.63-1.51-1.65-2.72c-0.04-2.82-0.01-5.64-0.01-8.47
		C131.97,53.64,131.98,53.64,131.99,53.64z"/>
	<path class="st0" d="M294.69,48.19c0-4.48-0.02-8.96,0.01-13.44c0.01-1.14-0.06-2.58,1.4-2.84c1.78-0.31,2.34,1.25,2.4,2.52
		c0.21,4.14,0.04,8.29,0.29,12.42c0.19,3.18-0.91,6.49,0.79,9.54c2.92-1.4,4.71-4.07,6.99-6.19c2.06-1.92,3.95-4.03,5.97-6
		c0.92-0.9,1.98-2.19,3.36-0.89c1.46,1.37,0.57,2.72-0.53,3.88c-1.26,1.32-2.58,2.58-3.84,3.9c-2.67,2.78-2.67,2.79-0.13,5.46
		c1.49,1.56,3.04,3.06,4.49,4.65c0.87,0.95,1.08,2.09,0.15,3.14c-1.11,1.26-2.1,0.44-2.96-0.38c-1.81-1.71-3.58-3.46-5.33-5.23
		c-1.3-1.31-2.53-1.38-3.85-0.04c-1.28,1.3-2.54,2.63-3.91,3.83c-1.16,1.02-2.08,3.06-4.01,2.1c-1.75-0.87-1.28-2.89-1.3-4.51
		c-0.05-3.98-0.02-7.96-0.02-11.94C294.67,48.19,294.68,48.19,294.69,48.19z"/>
	<path class="st0" d="M35.32,81.4c-4-0.34-8.37-1.39-12.47-3.3c-3.1-1.44-4.54-4.87-3.4-7.39c1.41-3.11,4.48-4.61,7.71-3.7
		c3.2,0.9,6.39,1.85,9.59,2.78c1.96,0.58,3.66,1.45,4.69,3.4C43.72,77.53,41.1,81.42,35.32,81.4z"/>
	<path class="st0" d="M116.4,65.46c-1.65-0.08-3.32-0.08-4.96-0.26c-1.03-0.12-1.93-0.72-1.95-1.89c-0.02-1.2,0.92-1.72,1.95-1.85
		c1.31-0.16,2.64-0.15,3.97-0.19c1.33-0.03,2.66,0,3.98-0.05c1.8-0.07,3.4-0.55,3.4-2.74c0.01-2.2-1.72-2.6-3.41-2.85
		c-0.98-0.14-1.99-0.07-2.98-0.14c-4.49-0.3-7.12-2.43-7.31-5.92c-0.19-3.41,2.95-6.68,6.99-7.08c1.81-0.18,3.65-0.09,5.47-0.03
		c1.38,0.05,2.9,0.37,2.8,2.09c-0.1,1.75-1.74,1.71-3.06,1.79c-1.32,0.07-2.65,0.03-3.98,0.09c-1.83,0.09-3.35,0.71-3.28,2.87
		c0.07,2.14,1.8,2.05,3.28,2.1c1.82,0.07,3.62,0.07,5.37,0.82c3.23,1.39,5.07,3.84,4.91,6.75c-0.16,2.84-2.89,5.72-6.22,6.24
		c-1.62,0.25-3.31,0.04-4.96,0.04C116.41,65.32,116.4,65.39,116.4,65.46z"/>
	<path class="st0" d="M269.87,52.71c0.33-3.52,2.39-7.1,6.68-9.15c3.94-1.88,7.77-1.65,11.2,1.25c0.97,0.81,2.41,1.71,1.46,3.27
		c-1,1.63-2.25,0.59-3.45,0c-1.93-0.95-3.84-1.87-6.18-1.18c-4.06,1.2-6.44,4.86-5.44,8.72c1.06,4.08,5.24,6.32,9.41,4.96
		c0.94-0.3,1.84-0.78,2.68-1.29c1.12-0.68,2.19-1.03,3,0.28c0.81,1.33-0.22,2.17-1.07,2.96c-1.91,1.78-4.24,2.7-6.79,2.77
		C275.32,65.48,269.85,59.96,269.87,52.71z"/>
	<path class="st0" d="M219.6,33.89c1.07,0.17,1.66,0.58,1.8,1.24c0.25,1.12,0.45,2.28,0.42,3.43c-0.04,2.29,0.47,3.92,3.24,3.89
		c1.4-0.01,2.79,0.4,2.62,2.22c-0.15,1.5-1.46,1.69-2.64,1.67c-2.79-0.05-3.26,1.64-3.2,3.91c0.07,2.32-0.1,4.66,0.06,6.98
		c0.22,3.31,1.27,4.06,4.45,3.11c1.18-0.35,2.21-0.98,3,0.39c0.87,1.5,0.01,2.5-1.15,3.35c-3.67,2.68-9.92-0.01-10.16-4.82
		c-0.39-7.62-0.11-15.28-0.07-22.92C217.97,35.08,218.6,34.16,219.6,33.89z"/>
	<path class="st0" d="M237.94,47.87c0,4.15,0.03,8.3-0.02,12.44c-0.01,1.14-0.21,2.3-0.47,3.41c-0.15,0.65-0.72,1.11-1.45,1.15
		c-0.76,0.04-1.36-0.43-1.56-1.02c-0.31-0.92-0.48-1.93-0.49-2.91c-0.03-8.46-0.02-16.92-0.02-25.39c0-0.17,0.01-0.33,0.02-0.5
		c0.1-1.54,0.26-3.27,2.26-3.2c1.81,0.06,1.67,1.79,1.69,3.07c0.05,4.31,0.02,8.63,0.02,12.94
		C237.93,47.87,237.93,47.87,237.94,47.87z"/>
	<path class="st0" d="M199.9,53.58c0-2.82-0.09-5.64,0.04-8.45c0.06-1.45,0.98-2.96,2.51-2.01c2.11,1.31,3.74,0.5,5.6-0.19
		c0.75-0.28,1.63-0.36,2.43-0.3c1.07,0.08,1.85,0.72,2.01,1.86c0.14,1.01-0.53,1.49-1.36,1.78c-0.78,0.27-1.61,0.44-2.37,0.75
		c-3.23,1.32-5.07,3.56-4.94,7.24c0.1,2.65,0.02,5.31-0.07,7.96c-0.04,1.19-0.43,2.51-1.81,2.6c-1.81,0.12-2.02-1.46-2.07-2.78
		c-0.09-2.82-0.03-5.64-0.03-8.46C199.86,53.58,199.88,53.58,199.9,53.58z"/>
	<path class="st0" d="M194.56,49.92c-2.21-5.65-8.36-8.81-13.71-6.92c-7.34,2.6-9.38,8.28-7.41,15.1c1.35,4.66,9.8,9.78,15.26,5.95
		c0.74-0.52,1.57-1.07,2.74-0.62c3.38,1.32,3.9,1.03,4.26-2.21c0.13-1.15,0.02-2.32,0.02-3.27
		C195.98,55.03,195.54,52.42,194.56,49.92z M183.84,61.14c-3.69-0.03-6.84-3.19-6.96-6.98c-0.12-3.97,3.05-7.5,6.86-7.63
		c3.97-0.13,7.15,3.07,7.19,7.23C190.97,57.73,187.66,61.17,183.84,61.14z"/>
	<path class="st0" d="M254.23,42.44c-6.18,0.05-11.4,5.36-11.36,11.54c0.04,6.07,5.63,11.51,11.64,11.35
		c5.58-0.15,11.22-5.86,11.25-11.38C265.8,48.05,260.13,42.39,254.23,42.44z M254.28,61.07c-4.08-0.02-7.38-3.28-7.35-7.27
		c0.03-3.93,3.49-7.27,7.46-7.21c3.68,0.06,7.36,3.95,7.15,7.57C261.35,57.74,257.83,61.08,254.28,61.07z"/>
</g>
</svg>
